<?xml version="1.0" encoding="UTF-8"?>
<svg width="85px" height="128px" viewBox="0 0 85 128" version="1.1" xmlns="http://www.w3.org/2000/svg" xmlns:xlink="http://www.w3.org/1999/xlink">
    <!-- Generator: Sketch 43.1 (39012) - http://www.bohemiancoding.com/sketch -->
    <title>beer-glass-tall</title>
    <desc>Created with Sketch.</desc>
    <defs></defs>
    <g id="Page-1" stroke="none" stroke-width="1" fill="none" fill-rule="evenodd">
        <g id="beer-glass-tall" fill-rule="nonzero" fill="#FFFFFF">
            <path d="M84.928,0 L82.166,0 C82.066,0.765 81.408,6.041 76.852,42.462 C84.129,51.135 74.762,59.271 74.762,59.271 L66.535,125.085 L49.704,125.085 L35.227,125.085 L18.403,125.085 L10.175,59.271 C10.175,59.271 0.791,51.135 8.068,42.462 C3.514,6.041 2.855,0.765 2.765,0 L0,0 L5.212,41.671 C-0.327,49.283 3.902,56.918 7.575,60.586 L15.979,127.826 L68.947,127.826 L77.351,60.586 C81.027,56.918 85.246,49.283 79.711,41.671 L84.928,0 Z" id="Shape"></path>
            <path d="M72.763,43.671 L72.973,41.977 L76.376,14.738 L8.546,14.738 L11.953,41.977 L12.166,43.671 L11.07,44.981 C9.091,47.333 8.713,49.659 9.867,52.304 C10.893,54.658 12.733,56.308 12.749,56.324 L13.881,57.308 L14.059,58.786 L21.853,121.171 L35.229,121.171 L49.706,121.171 L63.078,121.171 L70.879,58.786 L71.067,57.293 L72.195,56.309 C72.195,56.309 74.033,54.659 75.061,52.305 C76.214,49.66 75.829,47.334 73.86,44.982 L72.763,43.671 Z" id="Shape"></path>
            <path d="M50.707,8.369 C50.707,7.455 51.442,6.717 52.356,6.717 C53.264,6.717 54.006,7.455 54.006,8.369 C54.006,9.278 53.264,10.016 52.356,10.022 C51.447,10.016 50.707,9.277 50.707,8.369" id="Shape"></path>
            <path d="M50.707,5.072 C50.707,4.159 51.442,3.42 52.356,3.42 C53.264,3.42 54.006,4.159 54.006,5.072 C54.006,5.981 53.264,6.719 52.356,6.719 C51.442,6.719 50.707,5.98 50.707,5.072" id="Shape"></path>
            <path d="M47.411,5.069 C47.411,4.16 48.147,3.416 49.059,3.416 C49.973,3.416 50.703,4.16 50.703,5.074 C50.703,5.977 49.974,6.716 49.059,6.721 C48.147,6.722 47.411,5.978 47.411,5.069" id="Shape"></path>
            <path d="M47.411,8.369 C47.411,7.461 48.147,6.717 49.059,6.717 C49.973,6.717 50.703,7.455 50.703,8.369 C50.703,9.278 49.974,10.022 49.065,10.022 C48.157,10.016 47.411,9.277 47.411,8.369" id="Shape"></path>
            <path d="M44.113,8.369 C44.113,7.455 44.849,6.717 45.764,6.717 C46.672,6.717 47.409,7.461 47.409,8.369 C47.409,9.278 46.673,10.016 45.764,10.022 C44.849,10.021 44.113,9.277 44.113,8.369" id="Shape"></path>
            <path d="M44.113,5.072 C44.113,4.164 44.849,3.42 45.764,3.42 C46.672,3.42 47.409,4.159 47.409,5.066 C47.409,5.98 46.673,6.718 45.764,6.718 C44.849,6.719 44.113,5.975 44.113,5.072" id="Shape"></path>
            <path d="M40.813,5.072 C40.817,4.159 41.553,3.42 42.465,3.42 C43.373,3.42 44.11,4.164 44.11,5.072 C44.11,5.975 43.374,6.719 42.465,6.719 C41.554,6.719 40.818,5.98 40.813,5.072" id="Shape"></path>
            <path d="M40.818,8.369 C40.818,7.461 41.554,6.717 42.465,6.717 C43.373,6.717 44.11,7.455 44.11,8.369 C44.11,9.278 43.369,10.016 42.465,10.016 C41.554,10.016 40.818,9.277 40.818,8.369" id="Shape"></path>
            <path d="M37.514,8.369 C37.518,7.455 38.256,6.717 39.172,6.717 C40.08,6.717 40.816,7.461 40.816,8.369 C40.816,9.278 40.08,10.022 39.172,10.016 C38.255,10.021 37.518,9.277 37.514,8.369" id="Shape"></path>
            <path d="M37.518,5.072 C37.514,4.159 38.255,3.42 39.171,3.42 C40.079,3.42 40.815,4.159 40.809,5.072 C40.815,5.981 40.079,6.719 39.171,6.719 C38.255,6.719 37.518,5.98 37.518,5.072" id="Shape"></path>
            <path d="M34.219,5.072 C34.219,4.159 34.955,3.42 35.871,3.42 C36.779,3.42 37.51,4.159 37.515,5.072 C37.515,5.981 36.779,6.719 35.871,6.719 C34.956,6.719 34.219,5.98 34.219,5.072" id="Shape"></path>
            <path d="M34.219,8.369 C34.219,7.455 34.955,6.717 35.871,6.717 C36.779,6.717 37.515,7.455 37.51,8.369 C37.515,9.278 36.78,10.022 35.871,10.016 C34.956,10.016 34.219,9.277 34.219,8.369" id="Shape"></path>
            <path d="M30.92,8.367 C30.92,7.458 31.661,6.714 32.572,6.714 C33.486,6.714 34.216,7.458 34.216,8.372 C34.216,9.275 33.486,10.014 32.577,10.014 C31.656,10.013 30.92,9.28 30.92,8.367" id="Shape"></path>
            <path d="M30.92,5.072 C30.92,4.159 31.656,3.42 32.578,3.42 C33.486,3.42 34.217,4.159 34.217,5.072 C34.217,5.981 33.487,6.719 32.573,6.719 C31.661,6.719 30.92,5.98 30.92,5.072" id="Shape"></path>
            <path d="M27.625,5.072 C27.625,4.159 28.361,3.42 29.278,3.42 C30.186,3.42 30.916,4.159 30.916,5.072 C30.916,5.981 30.186,6.719 29.278,6.719 C28.361,6.719 27.625,5.98 27.625,5.072" id="Shape"></path>
            <path d="M27.625,8.369 C27.625,7.455 28.361,6.717 29.278,6.717 C30.186,6.717 30.916,7.455 30.916,8.363 C30.916,9.277 30.186,10.021 29.272,10.016 C28.361,10.016 27.625,9.277 27.625,8.369" id="Shape"></path>
            <path d="M24.325,8.369 C24.325,7.461 25.067,6.717 25.978,6.717 C26.886,6.717 27.622,7.455 27.622,8.369 C27.622,9.278 26.886,10.016 25.978,10.016 C25.067,10.016 24.325,9.277 24.325,8.369" id="Shape"></path>
            <path d="M24.325,5.069 C24.325,4.16 25.067,3.416 25.978,3.416 C26.886,3.416 27.622,4.16 27.622,5.074 C27.622,5.982 26.886,6.716 25.978,6.721 C25.067,6.722 24.325,5.978 24.325,5.069" id="Shape"></path>
            <path d="M21.027,8.369 C21.027,7.461 21.767,6.717 22.679,6.717 C23.593,6.717 24.323,7.461 24.323,8.369 C24.323,9.278 23.593,10.022 22.679,10.022 C21.767,10.021 21.027,9.277 21.027,8.369" id="Shape"></path>
            <path d="M21.027,5.069 C21.027,4.16 21.767,3.416 22.679,3.416 C23.593,3.416 24.323,4.16 24.323,5.069 C24.323,5.977 23.593,6.716 22.679,6.716 C21.767,6.717 21.027,5.978 21.027,5.069" id="Shape"></path>
            <path d="M17.732,5.069 C17.732,4.16 18.469,3.416 19.385,3.416 C20.293,3.422 21.023,4.16 21.023,5.069 C21.023,5.977 20.293,6.716 19.379,6.716 C18.469,6.717 17.732,5.978 17.732,5.069" id="Shape"></path>
            <path d="M17.728,8.367 C17.728,7.458 18.469,6.714 19.38,6.714 C20.294,6.714 21.024,7.458 21.024,8.372 C21.024,9.275 20.294,10.018 19.38,10.014 C18.469,10.018 17.728,9.274 17.728,8.367" id="Shape"></path>
            <path d="M14.438,8.369 C14.438,7.461 15.169,6.717 16.085,6.717 C16.993,6.717 17.724,7.455 17.724,8.363 C17.724,9.277 16.994,10.016 16.085,10.021 C15.169,10.016 14.434,9.277 14.438,8.369" id="Shape"></path>
            <path d="M14.434,5.072 C14.434,4.164 15.17,3.42 16.086,3.42 C16.994,3.42 17.73,4.159 17.73,5.066 C17.73,5.98 16.994,6.718 16.086,6.718 C15.169,6.719 14.434,5.98 14.434,5.072" id="Shape"></path>
            <path d="M11.138,5.069 C11.138,4.16 11.874,3.423 12.785,3.423 C13.693,3.417 14.43,4.161 14.43,5.075 C14.43,5.978 13.699,6.717 12.785,6.717 C11.874,6.717 11.133,5.978 11.138,5.069" id="Shape"></path>
            <path d="M11.138,8.369 C11.138,7.461 11.874,6.717 12.785,6.717 C13.699,6.717 14.435,7.461 14.435,8.369 C14.429,9.278 13.698,10.022 12.785,10.022 C11.874,10.021 11.133,9.277 11.138,8.369" id="Shape"></path>
            <path d="M7.839,8.367 C7.839,7.458 8.575,6.719 9.491,6.719 C10.399,6.714 11.135,7.458 11.135,8.372 C11.13,9.275 10.399,10.018 9.491,10.014 C8.58,10.018 7.839,9.274 7.839,8.367" id="Shape"></path>
            <path d="M7.839,5.069 C7.839,4.16 8.575,3.416 9.491,3.416 C10.399,3.416 11.135,4.16 11.135,5.069 C11.13,5.978 10.4,6.717 9.492,6.722 C8.575,6.722 7.839,5.978 7.839,5.069" id="Shape"></path>
            <path d="M50.707,11.668 C50.707,10.754 51.442,10.022 52.356,10.016 C53.264,10.016 54.006,10.754 54.006,11.668 C54.006,12.577 53.264,13.316 52.356,13.316 C51.442,13.316 50.707,12.577 50.707,11.668" id="Shape"></path>
            <path d="M47.411,11.666 C47.411,10.757 48.147,10.018 49.059,10.018 C49.973,10.018 50.703,10.757 50.703,11.666 C50.703,12.579 49.974,13.318 49.059,13.318 C48.147,13.318 47.411,12.579 47.411,11.666" id="Shape"></path>
            <path d="M44.113,11.668 C44.113,10.754 44.849,10.022 45.764,10.022 C46.672,10.017 47.409,10.755 47.409,11.668 C47.409,12.577 46.673,13.316 45.764,13.316 C44.849,13.316 44.113,12.577 44.113,11.668" id="Shape"></path>
            <path d="M40.813,11.668 C40.817,10.754 41.553,10.016 42.465,10.016 C43.373,10.021 44.11,10.754 44.11,11.668 C44.11,12.577 43.374,13.316 42.465,13.316 C41.554,13.316 40.818,12.577 40.813,11.668" id="Shape"></path>
            <path d="M37.518,11.668 C37.514,10.754 38.255,10.016 39.171,10.016 C40.079,10.016 40.815,10.754 40.809,11.668 C40.815,12.577 40.079,13.316 39.171,13.316 C38.255,13.316 37.518,12.577 37.518,11.668" id="Shape"></path>
            <path d="M34.219,11.668 C34.219,10.754 34.955,10.016 35.871,10.016 C36.779,10.016 37.51,10.754 37.515,11.668 C37.515,12.577 36.779,13.316 35.871,13.316 C34.956,13.316 34.219,12.577 34.219,11.668" id="Shape"></path>
            <path d="M30.92,11.668 C30.92,10.754 31.656,10.016 32.578,10.016 C33.486,10.016 34.217,10.754 34.217,11.668 C34.217,12.577 33.487,13.316 32.573,13.316 C31.661,13.316 30.92,12.577 30.92,11.668" id="Shape"></path>
            <path d="M27.625,11.668 C27.625,10.754 28.361,10.022 29.278,10.022 C30.186,10.017 30.916,10.755 30.916,11.668 C30.916,12.577 30.186,13.316 29.278,13.316 C28.361,13.316 27.625,12.582 27.625,11.668" id="Shape"></path>
            <path d="M24.325,11.666 C24.325,10.757 25.067,10.018 25.978,10.018 C26.886,10.018 27.622,10.757 27.622,11.666 C27.622,12.579 26.886,13.318 25.978,13.318 C25.067,13.318 24.325,12.579 24.325,11.666" id="Shape"></path>
            <path d="M21.027,11.666 C21.027,10.757 21.767,10.018 22.679,10.018 C23.593,10.018 24.323,10.757 24.323,11.666 C24.323,12.579 23.593,13.318 22.679,13.318 C21.767,13.318 21.027,12.579 21.027,11.666" id="Shape"></path>
            <path d="M17.732,11.666 C17.732,10.757 18.469,10.018 19.385,10.018 C20.293,10.018 21.023,10.757 21.023,11.666 C21.023,12.579 20.293,13.318 19.379,13.318 C18.469,13.318 17.732,12.579 17.732,11.666" id="Shape"></path>
            <path d="M14.434,11.668 C14.434,10.754 15.17,10.016 16.086,10.016 C16.994,10.016 17.73,10.754 17.73,11.668 C17.73,12.577 16.994,13.316 16.086,13.316 C15.169,13.316 14.434,12.577 14.434,11.668" id="Shape"></path>
            <path d="M11.138,11.666 C11.138,10.757 11.874,10.018 12.785,10.018 C13.693,10.018 14.43,10.757 14.43,11.666 C14.43,12.579 13.699,13.318 12.785,13.318 C11.874,13.318 11.133,12.579 11.138,11.666" id="Shape"></path>
            <path d="M7.839,11.666 C7.839,10.757 8.575,10.018 9.491,10.018 C10.399,10.018 11.135,10.757 11.135,11.666 C11.13,12.579 10.399,13.318 9.491,13.318 C8.575,13.318 7.839,12.579 7.839,11.666" id="Shape"></path>
            <path d="M73.792,8.369 C73.792,7.455 74.528,6.717 75.441,6.717 C76.349,6.717 77.091,7.455 77.091,8.369 C77.091,9.278 76.349,10.016 75.441,10.022 C74.534,10.016 73.792,9.277 73.792,8.369" id="Shape"></path>
            <path d="M73.792,5.072 C73.792,4.159 74.528,3.42 75.441,3.42 C76.349,3.42 77.091,4.159 77.091,5.072 C77.091,5.981 76.349,6.719 75.441,6.719 C74.529,6.719 73.792,5.98 73.792,5.072" id="Shape"></path>
            <path d="M70.498,5.069 C70.498,4.16 71.233,3.416 72.144,3.416 C73.062,3.416 73.793,4.16 73.793,5.074 C73.793,5.977 73.062,6.716 72.144,6.721 C71.233,6.722 70.493,5.978 70.498,5.069" id="Shape"></path>
            <path d="M70.498,8.369 C70.498,7.461 71.233,6.717 72.144,6.717 C73.062,6.717 73.793,7.455 73.793,8.369 C73.793,9.278 73.062,10.022 72.153,10.022 C71.233,10.016 70.498,9.277 70.498,8.369" id="Shape"></path>
            <path d="M67.198,8.369 C67.198,7.455 67.935,6.717 68.854,6.717 C69.75,6.717 70.498,7.461 70.498,8.369 C70.498,9.278 69.751,10.016 68.854,10.022 C67.935,10.021 67.198,9.277 67.198,8.369" id="Shape"></path>
            <path d="M67.198,5.072 C67.198,4.164 67.935,3.42 68.854,3.42 C69.75,3.42 70.498,4.159 70.498,5.066 C70.493,5.98 69.751,6.718 68.854,6.718 C67.935,6.719 67.198,5.975 67.198,5.072" id="Shape"></path>
            <path d="M63.899,5.072 C63.899,4.159 64.64,3.42 65.553,3.42 C66.461,3.42 67.193,4.164 67.193,5.072 C67.193,5.975 66.462,6.719 65.553,6.719 C64.64,6.719 63.899,5.98 63.899,5.072" id="Shape"></path>
            <path d="M63.899,8.369 C63.899,7.461 64.64,6.717 65.553,6.717 C66.461,6.717 67.193,7.455 67.193,8.369 C67.193,9.278 66.462,10.016 65.553,10.016 C64.64,10.016 63.899,9.277 63.899,8.369" id="Shape"></path>
            <path d="M60.6,8.369 C60.604,7.455 61.346,6.717 62.254,6.717 C63.162,6.717 63.893,7.461 63.893,8.369 C63.893,9.278 63.163,10.022 62.254,10.016 C61.346,10.021 60.604,9.277 60.6,8.369" id="Shape"></path>
            <path d="M60.604,5.072 C60.6,4.159 61.341,3.42 62.254,3.42 C63.162,3.42 63.893,4.159 63.893,5.072 C63.893,5.981 63.163,6.719 62.254,6.719 C61.341,6.719 60.604,5.98 60.604,5.072" id="Shape"></path>
            <path d="M57.305,5.072 C57.305,4.159 58.041,3.42 58.953,3.42 C59.863,3.42 60.594,4.159 60.603,5.072 C60.603,5.981 59.863,6.719 58.953,6.719 C58.042,6.719 57.305,5.98 57.305,5.072" id="Shape"></path>
            <path d="M57.305,8.369 C57.305,7.455 58.041,6.717 58.953,6.717 C59.863,6.717 60.603,7.455 60.594,8.369 C60.604,9.278 59.864,10.022 58.953,10.016 C58.042,10.016 57.305,9.277 57.305,8.369" id="Shape"></path>
            <path d="M54.006,8.367 C54.006,7.458 54.746,6.714 55.654,6.714 C56.563,6.714 57.304,7.458 57.304,8.372 C57.304,9.275 56.563,10.014 55.654,10.014 C54.743,10.013 54.006,9.28 54.006,8.367" id="Shape"></path>
            <path d="M54.006,5.072 C54.006,4.159 54.742,3.42 55.654,3.42 C56.563,3.42 57.304,4.159 57.304,5.072 C57.304,5.981 56.563,6.719 55.654,6.719 C54.747,6.719 54.006,5.98 54.006,5.072" id="Shape"></path>
            <path d="M50.711,5.072 C50.706,4.159 51.446,3.42 52.365,3.42 C53.273,3.42 54.006,4.159 54.006,5.072 C54.006,5.981 53.274,6.719 52.365,6.719 C51.447,6.719 50.707,5.98 50.711,5.072" id="Shape"></path>
            <path d="M50.707,8.369 C50.712,7.455 51.447,6.717 52.366,6.717 C53.264,6.717 54.007,7.455 54.007,8.363 C54.007,9.277 53.265,10.021 52.357,10.016 C51.447,10.016 50.707,9.277 50.707,8.369" id="Shape"></path>
            <path d="M47.411,8.369 C47.411,7.461 48.157,6.717 49.065,6.717 C49.973,6.717 50.709,7.455 50.703,8.369 C50.703,9.278 49.974,10.016 49.065,10.016 C48.156,10.016 47.411,9.277 47.411,8.369" id="Shape"></path>
            <path d="M47.411,5.069 C47.411,4.16 48.157,3.416 49.065,3.416 C49.973,3.416 50.703,4.16 50.709,5.074 C50.703,5.982 49.974,6.716 49.065,6.721 C48.157,6.722 47.411,5.978 47.411,5.069" id="Shape"></path>
            <path d="M44.113,8.369 C44.113,7.461 44.854,6.717 45.764,6.717 C46.672,6.717 47.409,7.461 47.409,8.369 C47.409,9.278 46.673,10.022 45.764,10.022 C44.854,10.021 44.113,9.277 44.113,8.369" id="Shape"></path>
            <path d="M44.113,5.069 C44.113,4.16 44.854,3.416 45.764,3.416 C46.672,3.416 47.409,4.16 47.409,5.069 C47.409,5.977 46.673,6.716 45.764,6.716 C44.854,6.717 44.113,5.978 44.113,5.069" id="Shape"></path>
            <path d="M40.818,5.069 C40.818,4.16 41.554,3.416 42.465,3.416 C43.373,3.422 44.11,4.16 44.11,5.069 C44.11,5.977 43.374,6.716 42.465,6.716 C41.554,6.717 40.818,5.978 40.818,5.069" id="Shape"></path>
            <path d="M40.813,8.367 C40.813,7.458 41.553,6.714 42.465,6.714 C43.373,6.714 44.11,7.458 44.11,8.372 C44.11,9.275 43.374,10.018 42.465,10.014 C41.554,10.018 40.813,9.274 40.813,8.367" id="Shape"></path>
            <path d="M37.518,8.369 C37.518,7.461 38.255,6.717 39.171,6.717 C40.079,6.717 40.809,7.455 40.809,8.363 C40.809,9.277 40.079,10.016 39.171,10.021 C38.255,10.016 37.518,9.277 37.518,8.369" id="Shape"></path>
            <path d="M37.518,5.072 C37.518,4.164 38.255,3.42 39.171,3.42 C40.079,3.42 40.815,4.159 40.815,5.066 C40.815,5.98 40.079,6.718 39.171,6.718 C38.255,6.719 37.518,5.98 37.518,5.072" id="Shape"></path>
            <path d="M34.224,5.069 C34.224,4.16 34.955,3.423 35.871,3.423 C36.779,3.417 37.515,4.161 37.515,5.075 C37.515,5.978 36.785,6.717 35.871,6.717 C34.956,6.717 34.219,5.978 34.224,5.069" id="Shape"></path>
            <path d="M34.224,8.369 C34.224,7.461 34.955,6.717 35.871,6.717 C36.785,6.717 37.515,7.461 37.515,8.369 C37.515,9.278 36.785,10.022 35.871,10.022 C34.956,10.021 34.219,9.277 34.224,8.369" id="Shape"></path>
            <path d="M30.925,8.367 C30.92,7.458 31.661,6.719 32.578,6.719 C33.486,6.714 34.223,7.458 34.223,8.372 C34.217,9.275 33.487,10.018 32.578,10.014 C31.661,10.018 30.92,9.274 30.925,8.367" id="Shape"></path>
            <path d="M30.92,5.069 C30.92,4.16 31.661,3.416 32.578,3.416 C33.486,3.416 34.223,4.16 34.223,5.069 C34.217,5.977 33.487,6.716 32.578,6.721 C31.661,6.722 30.92,5.978 30.92,5.069" id="Shape"></path>
            <path d="M73.792,11.668 C73.792,10.754 74.528,10.022 75.441,10.016 C76.349,10.016 77.091,10.754 77.091,11.668 C77.091,12.577 76.349,13.316 75.441,13.316 C74.529,13.316 73.792,12.577 73.792,11.668" id="Shape"></path>
            <path d="M70.498,11.666 C70.498,10.757 71.233,10.018 72.144,10.018 C73.062,10.018 73.793,10.757 73.793,11.666 C73.793,12.579 73.062,13.318 72.144,13.318 C71.233,13.318 70.493,12.579 70.498,11.666" id="Shape"></path>
            <path d="M67.198,11.668 C67.198,10.754 67.935,10.022 68.854,10.022 C69.75,10.017 70.498,10.755 70.498,11.668 C70.493,12.577 69.751,13.316 68.854,13.316 C67.935,13.316 67.198,12.577 67.198,11.668" id="Shape"></path>
            <path d="M63.899,11.668 C63.899,10.754 64.64,10.016 65.553,10.016 C66.461,10.021 67.193,10.754 67.193,11.668 C67.193,12.577 66.462,13.316 65.553,13.316 C64.64,13.316 63.899,12.577 63.899,11.668" id="Shape"></path>
            <path d="M60.604,11.668 C60.6,10.754 61.341,10.016 62.254,10.016 C63.162,10.016 63.893,10.754 63.893,11.668 C63.893,12.577 63.163,13.316 62.254,13.316 C61.341,13.316 60.604,12.577 60.604,11.668" id="Shape"></path>
            <path d="M57.305,11.668 C57.305,10.754 58.041,10.016 58.953,10.016 C59.863,10.016 60.594,10.754 60.603,11.668 C60.603,12.577 59.863,13.316 58.953,13.316 C58.042,13.316 57.305,12.577 57.305,11.668" id="Shape"></path>
            <path d="M54.006,11.668 C54.006,10.754 54.742,10.016 55.654,10.016 C56.563,10.016 57.304,10.754 57.304,11.668 C57.304,12.577 56.563,13.316 55.654,13.316 C54.747,13.316 54.006,12.577 54.006,11.668" id="Shape"></path>
            <path d="M50.711,11.668 C50.706,10.754 51.446,10.022 52.365,10.022 C53.273,10.017 54.006,10.755 54.006,11.668 C54.006,12.577 53.274,13.316 52.365,13.316 C51.447,13.316 50.707,12.582 50.711,11.668" id="Shape"></path>
            <path d="M47.411,11.666 C47.411,10.757 48.157,10.018 49.065,10.018 C49.973,10.018 50.703,10.757 50.709,11.666 C50.703,12.579 49.974,13.318 49.065,13.318 C48.156,13.318 47.411,12.579 47.411,11.666" id="Shape"></path>
            <path d="M44.113,11.666 C44.113,10.757 44.854,10.018 45.764,10.018 C46.672,10.018 47.409,10.757 47.409,11.666 C47.409,12.579 46.673,13.318 45.764,13.318 C44.854,13.318 44.113,12.579 44.113,11.666" id="Shape"></path>
            <path d="M40.818,11.666 C40.818,10.757 41.554,10.018 42.465,10.018 C43.373,10.018 44.11,10.757 44.11,11.666 C44.11,12.579 43.374,13.318 42.465,13.318 C41.554,13.318 40.818,12.579 40.818,11.666" id="Shape"></path>
            <path d="M37.518,11.668 C37.518,10.754 38.255,10.016 39.171,10.016 C40.079,10.016 40.815,10.754 40.815,11.668 C40.815,12.577 40.079,13.316 39.171,13.316 C38.255,13.316 37.518,12.577 37.518,11.668" id="Shape"></path>
            <path d="M34.224,11.666 C34.224,10.757 34.955,10.018 35.871,10.018 C36.779,10.018 37.515,10.757 37.515,11.666 C37.515,12.579 36.785,13.318 35.871,13.318 C34.956,13.318 34.219,12.579 34.224,11.666" id="Shape"></path>
            <path d="M30.92,11.666 C30.92,10.757 31.661,10.018 32.578,10.018 C33.486,10.018 34.223,10.757 34.223,11.666 C34.217,12.579 33.487,13.318 32.578,13.318 C31.661,13.318 30.92,12.579 30.92,11.666" id="Shape"></path>
        </g>
    </g>
</svg>