<?xml version="1.0" encoding="UTF-8" standalone="no"?>
<svg  viewBox="0 0 76 14" version="1.1" xmlns="http://www.w3.org/2000/svg" xmlns:xlink="http://www.w3.org/1999/xlink">
    <!-- Generator: Sketch 41.2 (35397) - http://www.bohemiancoding.com/sketch -->
    <title>alulu</title>
    <defs></defs>
    <g id="Page-1" stroke="none" stroke-width="1" fill="none" fill-rule="evenodd">
        <g id="alulu" fill="#fff">
            <polygon id="Shape" points="16.672 3.378 14.985 3.378 14.985 13.517 25.119 13.517 25.119 11.827 16.672 11.827"></polygon>
            <polygon id="Shape" points="20.051 0 18.363 0 18.363 10.137 28.498 10.137 28.498 8.448 20.051 8.448"></polygon>
            <path d="M42.012,7.156 C42.003,7.567 42.029,8.351 40.818,8.351 L34.792,8.351 C33.582,8.351 33.605,7.567 33.596,7.156 L33.585,0 L31.891,0 L31.891,3.379 L31.891,7.235 L31.891,10.614 C31.891,11.78 32.663,13.516 34.792,13.516 L37.806,13.516 L40.818,13.516 C42.946,13.516 43.717,11.78 43.717,10.614 L43.717,7.236 L43.717,3.379 L43.717,0 L42.024,0 L42.012,7.156 Z M40.818,11.731 L34.792,11.731 C33.582,11.731 33.605,10.947 33.596,10.535 L33.596,9.912 C33.935,10.053 34.331,10.137 34.792,10.137 L40.818,10.137 C41.276,10.137 41.672,10.053 42.012,9.912 L42.012,10.535 C42.003,10.947 42.029,11.731 40.818,11.731 L40.818,11.731 Z" id="Shape"></path>
            <polygon id="Shape" points="52.18 10.137 57.247 10.137 57.247 8.447 52.18 8.447 52.18 3.378 50.491 3.378 50.491 8.447 48.799 8.447 48.799 0 47.112 0 47.112 10.137 50.491 10.137 50.491 13.515 60.626 13.515 60.626 11.827 52.18 11.827"></polygon>
            <path d="M74.024,3.378 L74.01,10.535 C74,10.947 74.026,11.731 72.816,11.731 L69.805,11.731 L66.906,11.731 C65.696,11.731 65.719,10.947 65.712,10.535 L65.71,10.138 L66.54,10.138 L69.436,10.138 C71.567,10.138 72.337,8.402 72.337,7.238 L72.337,0 L70.643,0 L70.632,7.156 C70.623,7.567 70.649,8.351 69.436,8.351 L66.54,8.351 L65.709,8.351 L65.7,3.378 L64.004,3.378 L64.004,8.351 L63.528,8.351 C62.319,8.351 62.34,7.567 62.333,7.156 L62.323,0 L60.627,0 L60.627,7.237 C60.627,8.401 61.398,10.137 63.528,10.137 L64.004,10.137 L64.004,10.615 C64.004,11.783 64.779,13.517 66.906,13.517 L69.805,13.517 L72.816,13.517 C74.946,13.517 75.717,11.783 75.717,10.615 L75.717,3.378 L74.024,3.378 Z" id="Shape"></path>
            <polygon id="Shape" points="7.095 0 6.232 1.641 1.772 10.137 1.773 10.137 0 13.515 1.724 13.515 5.324 6.66 8.925 13.515 10.646 13.515 6.185 5.019 6.185 5.018 7.095 3.28 10.696 10.137 12.418 10.137 7.957 1.641"></polygon>
        </g>
    </g>
</svg>